<?xml version="1.0" encoding="UTF-8" standalone="no"?>
<!-- Created with Inkscape (http://www.inkscape.org/) -->

<svg
   xmlns:dc="http://purl.org/dc/elements/1.1/"
   xmlns:cc="http://creativecommons.org/ns#"
   xmlns:rdf="http://www.w3.org/1999/02/22-rdf-syntax-ns#"
   xmlns:svg="http://www.w3.org/2000/svg"
   xmlns="http://www.w3.org/2000/svg"
   version="1.1"
   width="64"
   height="64"
   id="svg2">
  <defs
     id="defs4" />
  <metadata
     id="metadata7">
    <rdf:RDF>
      <cc:Work
         rdf:about="">
        <dc:format>image/svg+xml</dc:format>
        <dc:type
           rdf:resource="http://purl.org/dc/dcmitype/StillImage" />
        <dc:title></dc:title>
      </cc:Work>
    </rdf:RDF>
  </metadata>
  <g
     transform="translate(0,-988.36218)"
     id="layer1">
    <path
       d="m 0.71433051,1049.7858 c 1.56426499,-1.1011 3.01027199,-2.9117 4.83999999,-2.42 15.3739105,-22.4886 35.1525025,-34.677 53.2399995,-50.82001 -18.962908,16.79811 -25.155236,3.0887 -58.07999949,53.24001 z"
       id="path3763"
       style="fill:#ffffff;fill-opacity:1;stroke:#000000;stroke-width:0.121;stroke-linecap:butt;stroke-linejoin:miter;stroke-miterlimit:4;stroke-opacity:1;stroke-dasharray:none" />
    <path
       d="m 10.600245,1035.4834 c -4.0576904,-21.8574 25.383169,-29.8889 43.354085,-42.56758 4.17961,-1.00042 6.894894,-1.08331 9.68,-1.21 -22.358698,22.90188 -24.936795,6.8279 -53.034085,43.77758 z"
       id="path3765"
       style="fill:#000000;fill-opacity:1;stroke:#000000;stroke-width:0.121;stroke-linecap:butt;stroke-linejoin:miter;stroke-miterlimit:4;stroke-opacity:1;stroke-dasharray:none" />
    <path
       d="m 15.23433,1035.2658 c 9.757119,0.257 34.589879,-32.7364 44.77,-33.88 -0.602443,-7.03108 2.222709,-7.08564 3.63,-9.67998 -17.262909,15.09518 -37.353387,30.15528 -48.4,43.55998 z"
       id="path3767"
       style="fill:#000000;fill-opacity:1;stroke:#000000;stroke-width:0.121;stroke-linecap:butt;stroke-linejoin:miter;stroke-miterlimit:4;stroke-opacity:1;stroke-dasharray:none" />
    <path
       d="m 5.5543305,1047.3658 c -2.1875651,0.1233 -4.016929,2.0577 -4.83999999,2.42 10.88999949,-12.1 22.82118649,-28.7687 36.29999949,-35.5437 -22.773929,18.6901 -23.20607,24.7617 -31.4599995,33.1237 z"
       id="path3771"
       style="fill:#6e6e6e;fill-opacity:1;stroke:#000000;stroke-width:0.121;stroke-linecap:butt;stroke-linejoin:miter;stroke-miterlimit:4;stroke-opacity:1;stroke-dasharray:none" />
    <path
       d="m 5.4986257,1047.2745 c -0.4899968,0.013 -2.2570832,0.2859 -4.83831329,2.5329 3.81081279,-4.6357 5.33593089,-2.1315 4.83831329,-2.5329 z"
       id="path3769"
       style="fill:#000000;fill-opacity:1;stroke:#000000;stroke-width:0.121;stroke-linecap:butt;stroke-linejoin:miter;stroke-miterlimit:4;stroke-opacity:1;stroke-dasharray:none" />
  </g>
</svg>
